<mxfile host="Electron" agent="Mozilla/5.0 (Macintosh; Intel Mac OS X 10_15_7) AppleWebKit/537.36 (KHTML, like Gecko) draw.io/24.7.8 Chrome/128.0.6613.36 Electron/32.0.1 Safari/537.36" version="24.7.8">
  <diagram name="第 1 页" id="Vgr1khh9bZajA4_61rqw">
    <mxGraphModel dx="1114" dy="894" grid="1" gridSize="10" guides="1" tooltips="1" connect="1" arrows="1" fold="1" page="1" pageScale="1" pageWidth="1169" pageHeight="827" math="0" shadow="0">
      <root>
        <UserObject label="" animation="show uKolzK4MmTlCtpi3747j-32&#xa;wait 1000&#xa;" id="0">
          <mxCell />
        </UserObject>
        <mxCell id="1" parent="0" />
        <mxCell id="uKolzK4MmTlCtpi3747j-6" value="" style="endArrow=none;dashed=1;html=1;rounded=1;strokeWidth=2;strokeColor=#B3B3B3;fontColor=#737373;" parent="1" edge="1">
          <mxGeometry width="50" height="50" relative="1" as="geometry">
            <mxPoint x="50" y="650" as="sourcePoint" />
            <mxPoint x="50" y="650" as="targetPoint" />
            <Array as="points">
              <mxPoint x="50" y="70" />
              <mxPoint x="390" y="70" />
              <mxPoint x="390" y="700" />
              <mxPoint x="50" y="700" />
            </Array>
          </mxGeometry>
        </mxCell>
        <mxCell id="uKolzK4MmTlCtpi3747j-7" value="&lt;span style=&quot;font-family: &amp;quot;Microsoft YaHei&amp;quot;, 微软雅黑, Arial; font-size: 13px; background-color: rgba(255, 255, 255, 0.01);&quot;&gt;创建案件&lt;/span&gt;" style="rounded=1;whiteSpace=wrap;html=1;fontColor=#737373;" parent="1" vertex="1">
          <mxGeometry x="90" y="140" width="120" height="60" as="geometry" />
        </mxCell>
        <mxCell id="uKolzK4MmTlCtpi3747j-8" value="" style="endArrow=none;dashed=1;html=1;rounded=1;strokeWidth=2;strokeColor=#B3B3B3;fontColor=#737373;" parent="1" edge="1">
          <mxGeometry width="50" height="50" relative="1" as="geometry">
            <mxPoint x="60" y="70" as="sourcePoint" />
            <mxPoint x="390" y="680" as="targetPoint" />
            <Array as="points">
              <mxPoint x="60" y="50" />
              <mxPoint x="410" y="50" />
              <mxPoint x="410" y="680" />
            </Array>
          </mxGeometry>
        </mxCell>
        <mxCell id="uKolzK4MmTlCtpi3747j-9" value="&lt;span style=&quot;font-family: &amp;quot;Microsoft YaHei&amp;quot;, 微软雅黑, Arial; font-size: 13px; background-color: rgba(255, 255, 255, 0.01);&quot;&gt;定制案件程序&lt;/span&gt;" style="rounded=1;whiteSpace=wrap;html=1;fontColor=#737373;" parent="1" vertex="1">
          <mxGeometry x="240" y="140" width="120" height="60" as="geometry" />
        </mxCell>
        <mxCell id="uKolzK4MmTlCtpi3747j-10" value="&lt;span style=&quot;font-family: &amp;quot;Microsoft YaHei&amp;quot;, 微软雅黑, Arial; font-size: 13px; background-color: rgba(255, 255, 255, 0.01);&quot;&gt;划分小组&lt;/span&gt;" style="rounded=1;whiteSpace=wrap;html=1;fontColor=#737373;" parent="1" vertex="1">
          <mxGeometry x="90" y="230" width="120" height="60" as="geometry" />
        </mxCell>
        <mxCell id="uKolzK4MmTlCtpi3747j-11" value="&lt;span style=&quot;font-family: &amp;quot;Microsoft YaHei&amp;quot;, 微软雅黑, Arial; font-size: 13px; background-color: rgba(255, 255, 255, 0.01);&quot;&gt;案件成员管理&lt;/span&gt;" style="rounded=1;whiteSpace=wrap;html=1;fontColor=#737373;" parent="1" vertex="1">
          <mxGeometry x="240" y="230" width="120" height="60" as="geometry" />
        </mxCell>
        <mxCell id="uKolzK4MmTlCtpi3747j-12" value="&lt;span style=&quot;font-family: &amp;quot;Microsoft YaHei&amp;quot;, 微软雅黑, Arial; font-size: 13px; background-color: rgba(255, 255, 255, 0.01);&quot;&gt;公告管理&lt;/span&gt;" style="rounded=1;whiteSpace=wrap;html=1;fontColor=#737373;" parent="1" vertex="1">
          <mxGeometry x="90" y="320" width="120" height="60" as="geometry" />
        </mxCell>
        <mxCell id="uKolzK4MmTlCtpi3747j-13" value="&lt;span style=&quot;font-family: &amp;quot;Microsoft YaHei&amp;quot;, 微软雅黑, Arial; font-size: 13px; background-color: rgba(255, 255, 255, 0.01);&quot;&gt;关联公众号&lt;/span&gt;" style="rounded=1;whiteSpace=wrap;html=1;fontColor=#737373;" parent="1" vertex="1">
          <mxGeometry x="240" y="320" width="120" height="60" as="geometry" />
        </mxCell>
        <mxCell id="uKolzK4MmTlCtpi3747j-14" value="&lt;span style=&quot;font-family: &amp;quot;Microsoft YaHei&amp;quot;, 微软雅黑, Arial; font-size: 13px; background-color: rgba(255, 255, 255, 0.01);&quot;&gt;案件详情&lt;/span&gt;" style="rounded=1;whiteSpace=wrap;html=1;fontColor=#737373;" parent="1" vertex="1">
          <mxGeometry x="90" y="410" width="120" height="60" as="geometry" />
        </mxCell>
        <mxCell id="uKolzK4MmTlCtpi3747j-15" value="&lt;span style=&quot;font-family: &amp;quot;Microsoft YaHei&amp;quot;, 微软雅黑, Arial; font-size: 13px; background-color: rgba(255, 255, 255, 0.01);&quot;&gt;案件进度&lt;/span&gt;" style="rounded=1;whiteSpace=wrap;html=1;fontColor=#737373;" parent="1" vertex="1">
          <mxGeometry x="240" y="410" width="120" height="60" as="geometry" />
        </mxCell>
        <mxCell id="uKolzK4MmTlCtpi3747j-16" value="&lt;span style=&quot;font-family: &amp;quot;Microsoft YaHei&amp;quot;, 微软雅黑, Arial; font-size: 13px; background-color: rgba(255, 255, 255, 0.01);&quot;&gt;债权审核&lt;/span&gt;" style="rounded=1;whiteSpace=wrap;html=1;fontColor=#737373;" parent="1" vertex="1">
          <mxGeometry x="90" y="500" width="120" height="60" as="geometry" />
        </mxCell>
        <mxCell id="uKolzK4MmTlCtpi3747j-17" value="&lt;span style=&quot;font-family: &amp;quot;Microsoft YaHei&amp;quot;, 微软雅黑, Arial; font-size: 13px; background-color: rgba(255, 255, 255, 0.01);&quot;&gt;债权计算过程对比&lt;/span&gt;" style="rounded=1;whiteSpace=wrap;html=1;fontColor=#737373;" parent="1" vertex="1">
          <mxGeometry x="240" y="500" width="120" height="60" as="geometry" />
        </mxCell>
        <mxCell id="uKolzK4MmTlCtpi3747j-18" value="&lt;span style=&quot;font-family: &amp;quot;Microsoft YaHei&amp;quot;, 微软雅黑, Arial; font-size: 13px; background-color: rgba(255, 255, 255, 0.01);&quot;&gt;实时申请数量&lt;/span&gt;" style="rounded=1;whiteSpace=wrap;html=1;fontColor=#737373;" parent="1" vertex="1">
          <mxGeometry x="90" y="590" width="120" height="60" as="geometry" />
        </mxCell>
        <mxCell id="uKolzK4MmTlCtpi3747j-19" value="&lt;span style=&quot;font-family: &amp;quot;Microsoft YaHei&amp;quot;, 微软雅黑, Arial; font-size: 13px; background-color: rgba(255, 255, 255, 0.01);&quot;&gt;实时审批操作&lt;/span&gt;" style="rounded=1;whiteSpace=wrap;html=1;fontColor=#737373;" parent="1" vertex="1">
          <mxGeometry x="240" y="590" width="120" height="60" as="geometry" />
        </mxCell>
        <mxCell id="uKolzK4MmTlCtpi3747j-20" value="&lt;span style=&quot;font-family: &amp;quot;Microsoft YaHei&amp;quot;, 微软雅黑, Arial; font-size: 13px; font-style: normal; font-variant-ligatures: normal; font-variant-caps: normal; font-weight: 400; letter-spacing: normal; orphans: 2; text-indent: 0px; text-transform: none; widows: 2; word-spacing: 0px; -webkit-text-stroke-width: 0px; white-space: normal; background-color: rgba(255, 255, 255, 0.01); text-decoration-thickness: initial; text-decoration-style: initial; text-decoration-color: initial; float: none; display: inline !important;&quot;&gt;案件&lt;/span&gt;" style="text;whiteSpace=wrap;html=1;rounded=1;fillColor=default;align=center;verticalAlign=middle;fontColor=#737373;" parent="1" vertex="1">
          <mxGeometry x="60" y="80" width="60" height="40" as="geometry" />
        </mxCell>
        <mxCell id="uKolzK4MmTlCtpi3747j-21" value="" style="endArrow=none;dashed=1;html=1;rounded=1;strokeColor=#B3B3B3;strokeWidth=2;fontColor=#737373;" parent="1" edge="1">
          <mxGeometry width="50" height="50" relative="1" as="geometry">
            <mxPoint x="444" y="410" as="sourcePoint" />
            <mxPoint x="444" y="410" as="targetPoint" />
            <Array as="points">
              <mxPoint x="444" y="310" />
              <mxPoint x="754" y="310" />
              <mxPoint x="754" y="700" />
              <mxPoint x="444" y="700" />
            </Array>
          </mxGeometry>
        </mxCell>
        <mxCell id="uKolzK4MmTlCtpi3747j-22" value="&lt;span style=&quot;font-family: &amp;quot;Microsoft YaHei&amp;quot;, 微软雅黑, Arial; font-size: 13px; background-color: rgba(255, 255, 255, 0.01);&quot;&gt;案件公众号授权&lt;/span&gt;" style="rounded=1;whiteSpace=wrap;html=1;fontColor=#737373;" parent="1" vertex="1">
          <mxGeometry x="464" y="360" width="120" height="60" as="geometry" />
        </mxCell>
        <mxCell id="uKolzK4MmTlCtpi3747j-23" value="&lt;span style=&quot;font-family: &amp;quot;Microsoft YaHei&amp;quot;, 微软雅黑, Arial; font-size: 13px; background-color: rgba(255, 255, 255, 0.01);&quot;&gt;公众号验证码登陆&lt;/span&gt;" style="rounded=1;whiteSpace=wrap;html=1;fontColor=#737373;" parent="1" vertex="1">
          <mxGeometry x="614" y="360" width="120" height="60" as="geometry" />
        </mxCell>
        <mxCell id="uKolzK4MmTlCtpi3747j-24" value="&lt;span style=&quot;font-family: &amp;quot;Microsoft YaHei&amp;quot;, 微软雅黑, Arial; font-size: 13px; background-color: rgba(255, 255, 255, 0.01);&quot;&gt;关注公众号获取案件通知&lt;/span&gt;" style="rounded=1;whiteSpace=wrap;html=1;fontColor=#737373;" parent="1" vertex="1">
          <mxGeometry x="464" y="450" width="120" height="60" as="geometry" />
        </mxCell>
        <mxCell id="uKolzK4MmTlCtpi3747j-25" value="&lt;span style=&quot;font-family: &amp;quot;Microsoft YaHei&amp;quot;, 微软雅黑, Arial; font-size: 13px; background-color: rgba(255, 255, 255, 0.01);&quot;&gt;公众号发布公告&lt;/span&gt;" style="rounded=1;whiteSpace=wrap;html=1;fontColor=#737373;" parent="1" vertex="1">
          <mxGeometry x="614" y="450" width="120" height="60" as="geometry" />
        </mxCell>
        <mxCell id="uKolzK4MmTlCtpi3747j-26" value="&lt;span style=&quot;font-family: &amp;quot;Microsoft YaHei&amp;quot;, 微软雅黑, Arial; font-size: 13px; background-color: rgba(255, 255, 255, 0.01);&quot;&gt;自动更新公众号菜单&lt;/span&gt;" style="rounded=1;whiteSpace=wrap;html=1;fontColor=#737373;" parent="1" vertex="1">
          <mxGeometry x="464" y="540" width="120" height="60" as="geometry" />
        </mxCell>
        <mxCell id="uKolzK4MmTlCtpi3747j-27" value="&lt;span style=&quot;font-family: &amp;quot;Microsoft YaHei&amp;quot;, 微软雅黑, Arial; font-size: 13px; background-color: rgba(255, 255, 255, 0.01);&quot;&gt;监控案件进度&lt;/span&gt;" style="rounded=1;whiteSpace=wrap;html=1;fontColor=#737373;" parent="1" vertex="1">
          <mxGeometry x="614" y="540" width="120" height="60" as="geometry" />
        </mxCell>
        <mxCell id="uKolzK4MmTlCtpi3747j-28" value="&lt;span style=&quot;font-family: &amp;quot;Microsoft YaHei&amp;quot;, 微软雅黑, Arial; font-size: 13px; background-color: rgba(255, 255, 255, 0.01);&quot;&gt;债权申请&lt;/span&gt;" style="rounded=1;whiteSpace=wrap;html=1;fontColor=#737373;" parent="1" vertex="1">
          <mxGeometry x="464" y="630" width="120" height="60" as="geometry" />
        </mxCell>
        <mxCell id="uKolzK4MmTlCtpi3747j-29" value="&lt;span style=&quot;font-family: &amp;quot;Microsoft YaHei&amp;quot;, 微软雅黑, Arial; font-size: 13px; background-color: rgba(255, 255, 255, 0.01);&quot;&gt;债权计算过程记录&lt;/span&gt;" style="rounded=1;whiteSpace=wrap;html=1;fontColor=#737373;" parent="1" vertex="1">
          <mxGeometry x="614" y="630" width="120" height="60" as="geometry" />
        </mxCell>
        <mxCell id="uKolzK4MmTlCtpi3747j-30" value="&lt;span style=&quot;font-family: &amp;quot;Microsoft YaHei&amp;quot;, 微软雅黑, Arial; font-size: 13px; font-style: normal; font-variant-ligatures: normal; font-variant-caps: normal; font-weight: 400; letter-spacing: normal; orphans: 2; text-indent: 0px; text-transform: none; widows: 2; word-spacing: 0px; -webkit-text-stroke-width: 0px; white-space: normal; background-color: rgba(255, 255, 255, 0.01); text-decoration-thickness: initial; text-decoration-style: initial; text-decoration-color: initial; float: none; display: inline !important;&quot;&gt;公众号&lt;/span&gt;" style="text;whiteSpace=wrap;html=1;rounded=1;fontFamily=Helvetica;fontSize=12;fontColor=#737373;fillColor=default;align=center;verticalAlign=middle;" parent="1" vertex="1">
          <mxGeometry x="449" y="314" width="60" height="40" as="geometry" />
        </mxCell>
        <mxCell id="uKolzK4MmTlCtpi3747j-31" value="" style="endArrow=none;dashed=1;html=1;rounded=1;strokeWidth=2;strokeColor=#B3B3B3;fontColor=#737373;" parent="1" edge="1">
          <mxGeometry width="50" height="50" relative="1" as="geometry">
            <mxPoint x="444" y="110" as="sourcePoint" />
            <mxPoint x="444" y="110" as="targetPoint" />
            <Array as="points">
              <mxPoint x="444" y="290" />
              <mxPoint x="754" y="290" />
              <mxPoint x="754" y="50" />
              <mxPoint x="444" y="50" />
            </Array>
          </mxGeometry>
        </mxCell>
        <mxCell id="uKolzK4MmTlCtpi3747j-32" value="&lt;span style=&quot;font-family: &amp;quot;Microsoft YaHei&amp;quot;, 微软雅黑, Arial; font-size: 13px; background-color: rgba(255, 255, 255, 0.01);&quot;&gt;会议现场视频&lt;/span&gt;" style="rounded=1;whiteSpace=wrap;html=1;fontColor=#737373;" parent="1" vertex="1">
          <mxGeometry x="464" y="110" width="120" height="60" as="geometry" />
        </mxCell>
        <mxCell id="uKolzK4MmTlCtpi3747j-33" value="&lt;span style=&quot;font-family: &amp;quot;Microsoft YaHei&amp;quot;, 微软雅黑, Arial; font-size: 13px; background-color: rgba(255, 255, 255, 0.01);&quot;&gt;举手表决&lt;/span&gt;" style="rounded=1;whiteSpace=wrap;html=1;fontColor=#737373;" parent="1" vertex="1">
          <mxGeometry x="614" y="110" width="120" height="60" as="geometry" />
        </mxCell>
        <mxCell id="uKolzK4MmTlCtpi3747j-34" value="&lt;span style=&quot;font-family: &amp;quot;Microsoft YaHei&amp;quot;, 微软雅黑, Arial; font-size: 13px; background-color: rgba(255, 255, 255, 0.01);&quot;&gt;会议纪要&lt;/span&gt;" style="rounded=1;whiteSpace=wrap;html=1;fontColor=#737373;" parent="1" vertex="1">
          <mxGeometry x="464" y="200" width="120" height="60" as="geometry" />
        </mxCell>
        <mxCell id="uKolzK4MmTlCtpi3747j-35" value="&lt;span style=&quot;font-family: &amp;quot;Microsoft YaHei&amp;quot;, 微软雅黑, Arial; font-size: 13px; background-color: rgba(255, 255, 255, 0.01);&quot;&gt;会议议程&lt;/span&gt;" style="rounded=1;whiteSpace=wrap;html=1;fontColor=#737373;" parent="1" vertex="1">
          <mxGeometry x="614" y="200" width="120" height="60" as="geometry" />
        </mxCell>
        <mxCell id="uKolzK4MmTlCtpi3747j-36" value="&lt;span style=&quot;font-family: &amp;quot;Microsoft YaHei&amp;quot;, 微软雅黑, Arial; font-size: 13px; font-style: normal; font-variant-ligatures: normal; font-variant-caps: normal; font-weight: 400; letter-spacing: normal; orphans: 2; text-indent: 0px; text-transform: none; widows: 2; word-spacing: 0px; -webkit-text-stroke-width: 0px; white-space: normal; background-color: rgba(255, 255, 255, 0.01); text-decoration-thickness: initial; text-decoration-style: initial; text-decoration-color: initial; float: none; display: inline !important;&quot;&gt;会议&lt;/span&gt;" style="text;whiteSpace=wrap;html=1;rounded=1;fillColor=default;align=center;verticalAlign=middle;fontColor=#737373;" parent="1" vertex="1">
          <mxGeometry x="454" y="60" width="60" height="40" as="geometry" />
        </mxCell>
        <mxCell id="uKolzK4MmTlCtpi3747j-37" value="" style="endArrow=none;dashed=1;html=1;rounded=1;strokeWidth=2;strokeColor=#B3B3B3;fontColor=#737373;" parent="1" edge="1">
          <mxGeometry width="50" height="50" relative="1" as="geometry">
            <mxPoint x="774" y="100" as="sourcePoint" />
            <mxPoint x="774" y="100" as="targetPoint" />
            <Array as="points">
              <mxPoint x="774" y="290" />
              <mxPoint x="1084" y="290" />
              <mxPoint x="1084" y="50" />
              <mxPoint x="774" y="50" />
            </Array>
          </mxGeometry>
        </mxCell>
        <mxCell id="uKolzK4MmTlCtpi3747j-38" value="&lt;span style=&quot;font-family: &amp;quot;Microsoft YaHei&amp;quot;, 微软雅黑, Arial; font-size: 13px; background-color: rgba(255, 255, 255, 0.01);&quot;&gt;支付宝人脸&lt;/span&gt;" style="rounded=1;whiteSpace=wrap;html=1;fontColor=#737373;" parent="1" vertex="1">
          <mxGeometry x="794" y="110" width="120" height="60" as="geometry" />
        </mxCell>
        <mxCell id="uKolzK4MmTlCtpi3747j-39" value="&lt;span style=&quot;font-family: &amp;quot;Microsoft YaHei&amp;quot;, 微软雅黑, Arial; font-size: 13px; background-color: rgba(255, 255, 255, 0.01);&quot;&gt;真人视频&lt;/span&gt;" style="rounded=1;whiteSpace=wrap;html=1;fontColor=#737373;" parent="1" vertex="1">
          <mxGeometry x="944" y="110" width="120" height="60" as="geometry" />
        </mxCell>
        <mxCell id="uKolzK4MmTlCtpi3747j-40" value="&lt;span style=&quot;font-family: &amp;quot;Microsoft YaHei&amp;quot;, 微软雅黑, Arial; font-size: 13px; background-color: rgba(255, 255, 255, 0.01);&quot;&gt;微信人脸&lt;/span&gt;" style="rounded=1;whiteSpace=wrap;html=1;fontColor=#737373;" parent="1" vertex="1">
          <mxGeometry x="794" y="200" width="120" height="60" as="geometry" />
        </mxCell>
        <mxCell id="uKolzK4MmTlCtpi3747j-41" value="&lt;span style=&quot;font-family: &amp;quot;Microsoft YaHei&amp;quot;, 微软雅黑, Arial; font-size: 13px; background-color: rgba(255, 255, 255, 0.01);&quot;&gt;函件邮寄密码&lt;/span&gt;" style="rounded=1;whiteSpace=wrap;html=1;fontColor=#737373;" parent="1" vertex="1">
          <mxGeometry x="944" y="200" width="120" height="60" as="geometry" />
        </mxCell>
        <mxCell id="uKolzK4MmTlCtpi3747j-42" value="&lt;span style=&quot;font-family: &amp;quot;Microsoft YaHei&amp;quot;, 微软雅黑, Arial; font-size: 13px; background-color: rgba(255, 255, 255, 0.01);&quot;&gt;真人认证&lt;/span&gt;" style="text;whiteSpace=wrap;html=1;rounded=1;align=center;verticalAlign=middle;fontFamily=Helvetica;fontSize=12;fontColor=#737373;fillColor=default;" parent="1" vertex="1">
          <mxGeometry x="784" y="60" width="60" height="40" as="geometry" />
        </mxCell>
        <mxCell id="KJZecFpPvFfJ8G_EWvrx-1" value="" style="endArrow=none;dashed=1;html=1;rounded=1;strokeWidth=2;strokeColor=#B3B3B3;fontColor=#737373;" parent="1" edge="1">
          <mxGeometry width="50" height="50" relative="1" as="geometry">
            <mxPoint x="775" y="360" as="sourcePoint" />
            <mxPoint x="775" y="360" as="targetPoint" />
            <Array as="points">
              <mxPoint x="775" y="460" />
              <mxPoint x="1085" y="460" />
              <mxPoint x="1085" y="310" />
              <mxPoint x="775" y="310" />
            </Array>
          </mxGeometry>
        </mxCell>
        <mxCell id="KJZecFpPvFfJ8G_EWvrx-2" value="&lt;span style=&quot;font-family: &amp;quot;Microsoft YaHei&amp;quot;, 微软雅黑, Arial; font-size: 13px; background-color: rgba(255, 255, 255, 0.01);&quot;&gt;淘宝拍卖&lt;/span&gt;" style="rounded=1;whiteSpace=wrap;html=1;fontColor=#737373;" parent="1" vertex="1">
          <mxGeometry x="795" y="370" width="120" height="60" as="geometry" />
        </mxCell>
        <mxCell id="KJZecFpPvFfJ8G_EWvrx-3" value="&lt;span style=&quot;font-family: &amp;quot;Microsoft YaHei&amp;quot;, 微软雅黑, Arial; font-size: 13px; background-color: rgba(255, 255, 255, 0.01);&quot;&gt;京东拍卖&lt;/span&gt;" style="rounded=1;whiteSpace=wrap;html=1;fontColor=#737373;" parent="1" vertex="1">
          <mxGeometry x="945" y="370" width="120" height="60" as="geometry" />
        </mxCell>
        <mxCell id="KJZecFpPvFfJ8G_EWvrx-6" value="&lt;span style=&quot;font-family: &amp;quot;Microsoft YaHei&amp;quot;, 微软雅黑, Arial; font-size: 13px; background-color: rgba(255, 255, 255, 0.01);&quot;&gt;拍卖对接&lt;/span&gt;" style="text;whiteSpace=wrap;html=1;rounded=1;align=center;verticalAlign=middle;fontFamily=Helvetica;fontSize=12;fontColor=#737373;fillColor=default;" parent="1" vertex="1">
          <mxGeometry x="785" y="320" width="60" height="40" as="geometry" />
        </mxCell>
      </root>
    </mxGraphModel>
  </diagram>
</mxfile>
